PathFileType	4	(X/Y/Z)	Kaydara																																																																																																																									
DataRate	CameraRate	NumFrames	NumMarkers	Units	OrigDataRate	OrigDataStartFrame	OrigNumFrames																																																																																																																					
30	30	9	41	mm	30	34	147																																																																																																																					
Frame#	Time	PAIB_LFHD			PAIB_RFHD			PAIB_LBHD			PAIB_RBHD			PAIB_LFTShould			PAIB_RFTShould			PAIB_LRRShould			PAIB_RRRShould			PAIB_T10			PAIB_STRN			PAIB_TRUN			PAIB_LSHO			PAIB_LUPA			PAIB_LELB			PAIB_LFRM			PAIB_LWRA			PAIB_LWRB			PAIB_LFIN			PAIB_RSHO			PAIB_RUPA			PAIB_RELB			PAIB_RFRM			PAIB_RWRA			PAIB_RWRB			PAIB_RFIN			PAIB_LFWT			PAIB_RFWT			PAIB_LBWT			PAIB_RBWT			PAIB_LTHI			PAIB_LKNE			PAIB_LSHN			PAIB_LANK			PAIB_LHEE			PAIB_LTOE			PAIB_RTHI			PAIB_RKNE			PAIB_RSHN			PAIB_RANK			PAIB_RHEE			PAIB_RTOE		
		X1	Y1	Z1	X2	Y2	Z2	X3	Y3	Z3	X4	Y4	Z4	X5	Y5	Z5	X6	Y6	Z6	X7	Y7	Z7	X8	Y8	Z8	X9	Y9	Z9	X10	Y10	Z10	X11	Y11	Z11	X12	Y12	Z12	X13	Y13	Z13	X14	Y14	Z14	X15	Y15	Z15	X16	Y16	Z16	X17	Y17	Z17	X18	Y18	Z18	X19	Y19	Z19	X20	Y20	Z20	X21	Y21	Z21	X22	Y22	Z22	X23	Y23	Z23	X24	Y24	Z24	X25	Y25	Z25	X26	Y26	Z26	X27	Y27	Z27	X28	Y28	Z28	X29	Y29	Z29	X30	Y30	Z30	X31	Y31	Z31	X32	Y32	Z32	X33	Y33	Z33	X34	Y34	Z34	X35	Y35	Z35	X36	Y36	Z36	X37	Y37	Z37	X38	Y38	Z38	X39	Y39	Z39	X40	Y40	Z40	X41	Y41	Z41
																																																																																																																												
19	1.1	260.42606	1707.16293	-2022.87415	73.63843	1708.55072	-2035.82047	272.84283	1645.27054	-2136.63177	70.94467	1662.6445	-2143.34915	224.12502	1434.25812	-1993.10791	101.75589	1431.78146	-1998.13599	234.06158	1493.24432	-2142.47711	81.70922	1491.94855	-2134.59381	155.59415	1331.11969	-2213.88702	171.73134	1369.86893	-1953.29803	170.60827	1269.57153	-1926.62018	354.61338	1441.07574	-2078.12653	401.75758	1220.65323	-2070.52704	422.86404	1130.37003	-2118.13156	446.42475	1020.73807	-2067.43851	398.28758	916.58501	-1966.27838	430.38567	891.09596	-2032.68921	448.65257	861.64108	-1968.92303	-26.22155	1431.17645	-2054.87503	-91.32923	1257.80945	-2093.89084	-114.14383	1142.63062	-2096.51337	-133.98169	1012.37885	-2049.03244	-78.34325	921.8251	-1938.53928	-145.13571	902.53616	-1985.52139	-137.97789	875.16151	-1915.90637	273.8953	977.54913	-1961.77353	37.33564	978.37692	-1959.68674	208.83331	1017.63161	-2177.44781	65.88597	1020.29465	-2172.85492	255.60246	741.84433	-2163.48846	305.84604	499.14761	-2065.01984	284.66221	307.88919	-2068.91037	284.52282	130.30475	-2172.33246	227.41428	122.98346	-2216.87302	277.6556	74.79566	-2000.70435	10.78852	720.51147	-2151.23291	2.09214	483.75629	-2056.58325	57.57739	296.2944	-2056.37161	27.18103	104.34482	-2163.30154	93.52303	114.21297	-2208.32123	36.13425	77.20002	-1988.57422
20	1.133	260.04456	1707.14874	-2022.82547	73.26746	1708.62732	-2035.61508	272.45321	1645.49316	-2136.75003	70.45648	1662.86957	-2143.27393	223.61982	1434.61548	-1992.95135	101.09989	1432.09274	-1998.15948	233.50124	1493.38135	-2142.39029	81.28046	1492.08878	-2134.57031	155.04306	1331.23016	-2213.83377	171.18992	1370.18524	-1953.1131	170.20515	1269.82697	-1926.50497	354.15249	1441.35696	-2077.95349	401.11942	1220.84877	-2069.99603	422.25021	1130.50346	-2117.42905	445.66544	1020.90134	-2066.474	397.09412	916.95427	-1965.23209	429.43756	891.3752	-2031.51917	447.55096	862.04315	-1967.72186	-26.67086	1431.48514	-2054.78607	-92.02031	1258.14804	-2093.53455	-114.8428	1142.96402	-2095.96161	-134.8052	1012.86964	-2048.14651	-79.28824	922.5544	-1937.42676	-145.93237	903.11371	-1984.17603	-138.97743	876.0244	-1914.60953	273.57826	977.67357	-1961.93146	37.09061	978.59901	-1959.82712	208.37086	1017.63474	-2177.677	65.45577	1020.30647	-2173.14026	255.24586	741.8821	-2163.64075	305.62265	499.17183	-2065.15869	284.56013	307.91641	-2069.02328	284.47226	130.2664	-2172.35611	227.36586	122.92731	-2216.87271	277.64658	74.7924	-2000.70282	10.31114	720.39085	-2151.29227	1.90323	483.69175	-2056.40182	57.51225	296.23442	-2056.33575	27.08954	104.26016	-2163.29529	93.46558	114.18926	-2208.34427	36.1688	77.20075	-1988.57819
21	1.167	259.65759	1707.08145	-2022.71011	72.94031	1708.6618	-2035.51376	272.09703	1645.44312	-2136.69418	70.06978	1662.86713	-2143.14697	223.57903	1434.84543	-1992.84409	100.74716	1432.29462	-1997.77145	233.10139	1493.62503	-2142.12463	80.80387	1492.29568	-2134.3277	154.53175	1331.46179	-2213.81012	170.81093	1370.25284	-1952.88101	169.65704	1269.80377	-1926.44623	354.35417	1441.85013	-2078.48816	400.69893	1221.01402	-2069.79416	421.68674	1130.65384	-2116.80878	444.91013	1021.09238	-2065.61707	396.1956	917.46307	-1964.1983	428.48553	891.64894	-2030.39658	446.43917	862.42065	-1966.35208	-27.05283	1431.71036	-2054.4165	-92.67043	1258.43536	-2093.02673	-115.66734	1143.27957	-2095.27771	-135.76845	1013.35571	-2047.23801	-80.31651	923.1881	-1936.31912	-147.00378	903.95599	-1983.24417	-139.95842	876.91002	-1913.31039	272.96616	977.6133	-1962.2612	36.62481	978.43544	-1960.05508	207.91796	1017.48947	-2177.97409	64.90808	1020.1265	-2173.43964	254.98144	741.74843	-2163.72116	305.41782	499.15203	-2064.9852	284.33245	307.87743	-2068.8298	284.43924	130.24077	-2172.27127	227.29755	122.94411	-2216.85577	277.60769	74.81629	-2000.7016	9.98796	720.16983	-2151.24878	1.74846	483.53783	-2056.09695	57.46442	296.10813	-2056.20605	27.14077	104.26905	-2163.27072	93.49411	114.23374	-2208.30185	36.18077	77.19531	-1988.56964
22	1.2	259.263	1707.05048	-2022.54089	72.58269	1708.67691	-2035.38239	271.74234	1645.23453	-2136.37985	69.78258	1662.79358	-2142.97607	222.89066	1434.83047	-1992.3143	100.34857	1432.42767	-1997.36023	232.75795	1493.75488	-2141.82251	80.44869	1492.44507	-2133.90671	154.032	1331.68945	-2213.76907	170.45431	1370.2739	-1952.62253	169.31904	1269.8317	-1926.33682	353.95546	1441.96838	-2078.11066	400.16129	1221.17233	-2069.31442	421.33083	1130.78041	-2116.28265	444.30103	1021.27571	-2064.80438	395.26596	917.90459	-1963.36609	427.63725	891.94817	-2029.37531	445.5262	862.87804	-1965.32211	-27.43541	1431.93253	-2053.90182	-93.38775	1258.79868	-2092.36542	-116.59083	1143.67165	-2094.58176	-136.72251	1013.8945	-2046.33148	-80.85944	923.78883	-1935.44601	-147.91957	904.48288	-1982.0871	-140.66856	877.65945	-1912.13211	272.45001	977.51602	-1962.5032	36.03736	978.33145	-1960.13977	207.38899	1017.27188	-2178.33984	64.36236	1019.86069	-2173.7178	254.59045	741.47079	-2163.77899	305.19703	499.10057	-2064.50882	284.08392	307.71652	-2068.4726	284.39533	130.23715	-2172.16217	227.24997	122.99376	-2216.78436	277.56897	74.81846	-2000.67001	9.75689	719.85886	-2150.96359	1.51761	483.37914	-2055.58304	57.39165	295.93374	-2055.79636	27.14603	104.2972	-2163.18405	93.4656	114.27715	-2208.25638	36.1935	77.18214	-1988.56461
23	1.233	258.98695	1707.05261	-2022.23236	72.2553	1708.71689	-2035.20584	271.57804	1645.39612	-2136.20636	69.52473	1662.87903	-2142.8064	222.6269	1434.9678	-1991.93481	100.11098	1432.77512	-1996.94931	232.42807	1493.89496	-2141.67694	80.0691	1492.68936	-2133.65509	153.41773	1331.87317	-2213.65646	170.07807	1370.44952	-1952.31415	168.88523	1269.92592	-1926.23306	353.2214	1442.0488	-2077.16095	399.70707	1221.2587	-2068.86841	421.1694	1130.96321	-2115.89798	443.90511	1021.46667	-2064.15451	394.24873	918.32565	-1962.5441	426.96926	892.24945	-2028.46527	444.57771	863.24013	-1964.26392	-27.82696	1432.39716	-2053.43933	-94.12755	1259.35104	-2091.75919	-117.4299	1144.21196	-2093.81653	-137.62168	1014.40681	-2045.46127	-81.65427	924.35669	-1934.655	-148.71128	905.17021	-1981.1322	-141.36515	878.31619	-1911.2442	272.05805	977.52945	-1962.69653	35.51946	978.24829	-1960.21561	206.80058	1017.17484	-2178.62198	63.78517	1019.68849	-2173.87436	254.11524	741.18462	-2163.59772	304.97389	499.01455	-2064.03992	283.98184	307.63323	-2068.2103	284.3327	130.48326	-2171.99417	227.17943	122.99712	-2216.67511	277.54414	74.78298	-2000.65201	9.30797	719.55269	-2150.74905	1.35415	483.18474	-2054.99115	57.31091	295.76149	-2055.45227	27.09558	104.26536	-2163.1076	93.41834	114.32561	-2208.19702	36.2129	77.18056	-1988.51486
24	1.267	258.83911	1706.89728	-2021.7897	72.0666	1708.78036	-2034.94247	271.3376	1645.38147	-2135.76996	69.35955	1663.16269	-2142.64404	222.33156	1435.11383	-1991.64734	99.71401	1433.16391	-1996.6217	232.03552	1493.93219	-2141.45767	79.69843	1492.97592	-2133.41202	152.78737	1332.01187	-2213.5463	169.70392	1370.54733	-1952.09259	168.50714	1270.01869	-1926.14212	352.66953	1442.1347	-2076.62598	399.32182	1221.38618	-2068.52325	421.03775	1131.15288	-2115.5397	443.5722	1021.66481	-2063.55835	393.69843	918.83385	-1961.88965	426.45649	892.48375	-2027.71881	443.88927	863.59016	-1963.52081	-28.1624	1432.87048	-2052.98355	-94.81507	1259.93774	-2091.1232	-118.43326	1144.91547	-2093.32001	-138.51913	1015.15579	-2044.81613	-82.4544	924.9337	-1934.11301	-149.57776	905.75386	-1980.34653	-142.00981	878.93311	-1910.53741	271.61356	977.41714	-1962.75497	34.99664	978.23074	-1960.07889	206.26411	1017.11655	-2178.70148	63.14883	1019.58847	-2173.9061	253.70972	741.07338	-2163.50128	304.82431	498.94039	-2063.69522	283.96683	307.5581	-2067.98019	284.22613	130.45294	-2171.98334	227.0908	123.09729	-2216.62628	277.52462	74.80794	-2000.62012	8.8832	719.3792	-2150.51117	1.20762	483.02948	-2054.6167	57.30436	295.69061	-2055.25925	27.10908	104.20987	-2162.9837	93.41217	114.42164	-2208.13721	36.27406	77.14402	-1988.41461
25	1.3	258.80091	1706.77521	-2021.23962	71.90325	1708.8652	-2034.57062	271.07807	1645.29022	-2135.17944	69.24479	1663.49274	-2142.36649	222.10562	1435.13977	-1991.46835	99.29944	1433.13324	-1996.54434	231.68013	1493.98209	-2141.30371	79.3293	1493.17078	-2133.14133	152.25212	1332.11349	-2213.42819	169.29724	1370.67108	-1951.89911	167.98359	1270.07629	-1925.93933	352.34245	1442.17377	-2076.45706	398.96782	1221.43204	-2068.28156	420.80544	1131.1937	-2115.11383	443.29922	1021.77231	-2063.08258	393.31146	918.92105	-1961.31577	426.13991	892.60544	-2027.14325	443.43277	863.70346	-1962.85263	-28.50846	1433.22418	-2052.56561	-95.56156	1260.44296	-2090.61554	-119.49619	1145.48874	-2092.8894	-139.48233	1015.57259	-2044.10263	-83.22628	925.38193	-1933.6441	-150.46803	906.36131	-1979.70612	-142.70548	879.52713	-1909.93668	271.11795	977.31987	-1962.88284	34.59365	978.29208	-1959.93179	205.60377	1017.02477	-2178.74512	62.57134	1019.61197	-2173.82782	253.28655	740.97305	-2163.45459	304.54716	498.90255	-2063.3255	283.82132	307.56832	-2067.76703	284.14759	130.44592	-2171.94382	227.02015	123.15502	-2216.51031	277.54139	74.78016	-2000.56396	8.50837	719.43001	-2150.39139	0.99094	483.05603	-2054.54437	57.26736	295.64545	-2055.18997	27.10133	104.31473	-2162.99438	93.357	114.49144	-2208.15628	36.30641	77.13336	-1988.4024
26	1.333	258.75244	1706.65726	-2020.68253	71.8206	1708.93097	-2033.98254	271.10929	1645.33478	-2134.74411	69.15405	1663.815	-2141.86935	221.70769	1435.23926	-1991.35773	99.02029	1433.44635	-1996.14838	231.42145	1493.92029	-2141.1171	79.10085	1493.30536	-2132.89413	151.76628	1332.1962	-2213.21884	168.97026	1370.78644	-1951.70624	167.4753	1270.17578	-1925.77667	352.55371	1442.34421	-2077.01401	398.69656	1221.41655	-2068.07907	420.49419	1131.12137	-2114.79553	443.00289	1021.69243	-2062.70554	393.13099	918.84048	-1961.06598	425.95608	892.57256	-2026.76346	443.36338	863.73894	-1962.50641	-28.8171	1433.54736	-2052.33673	-96.24216	1260.92781	-2090.30502	-120.38347	1146.02493	-2092.52106	-140.39792	1016.10291	-2043.65311	-83.97845	925.87509	-1933.28903	-151.36848	906.78932	-1979.14276	-143.47128	880.04044	-1909.43909	270.58432	977.33063	-1962.94388	33.92834	978.10486	-1959.99451	205.04156	1017.18498	-2178.81927	61.86475	1019.65034	-2173.84674	252.76884	740.93765	-2163.32245	304.19949	498.90781	-2063.24982	283.65639	307.57853	-2067.74643	284.0201	130.52225	-2171.93954	226.8693	123.23113	-2216.47812	277.50818	74.7664	-2000.53452	7.9889	719.37057	-2150.34073	0.76679	482.99313	-2054.3782	57.21285	295.65542	-2055.15579	27.03329	104.34414	-2163.04794	93.32508	114.5407	-2208.18497	36.30642	77.10453	-1988.40668
27	1.367	258.76127	1706.46637	-2020.13153	71.71677	1708.97369	-2033.40164	270.76612	1645.20172	-2134.08371	69.04505	1663.99521	-2141.3913	221.2431	1435.18677	-1991.17645	98.82862	1433.41202	-1995.75836	231.1911	1493.87573	-2140.86807	78.88536	1493.42148	-2132.58392	151.37447	1332.24289	-2212.95029	168.58328	1370.63553	-1951.418	167.06608	1270.05829	-1925.55954	352.1505	1442.00378	-2076.67252	398.29647	1221.22025	-2067.85522	420.05371	1130.88539	-2114.59885	442.71034	1021.48598	-2062.5676	393.08601	918.57468	-1960.86243	425.74066	892.33612	-2026.59744	443.35117	863.54607	-1962.37457	-29.09934	1433.7796	-2052.07382	-96.79102	1261.29158	-2090.10818	-120.95415	1146.35857	-2092.15866	-141.25971	1016.52916	-2043.40027	-84.65689	926.13914	-1933.17795	-152.05996	907.00172	-1978.4845	-144.36946	880.46776	-1909.1774	269.90856	977.21039	-1962.93091	33.42321	978.12935	-1960.08438	204.48496	1017.13387	-2178.93494	61.32881	1019.56589	-2174.13467	252.27472	740.88036	-2163.25195	303.846	498.8723	-2063.29926	283.45234	307.58272	-2067.80396	283.92033	130.53777	-2171.94	226.77113	123.21427	-2216.4949	277.46576	74.77093	-2000.51987	7.46257	719.05037	-2150.25711	0.54365	482.80018	-2053.69812	57.14161	295.45887	-2054.68018	27.09539	104.34614	-2162.84653	93.28216	114.6119	-2208.0896	36.34487	77.13025	-1988.36166
